<svg width="1870" height="1558" viewBox="0 0 1870 1558" fill="none" xmlns="http://www.w3.org/2000/svg">
<path d="M1869.88 367.548C1869.93 368.89 1869.97 370.237 1869.99 371.589L1868.99 371.603C1869 372.275 1869 372.948 1869 373.622C1869 374.287 1869 374.952 1868.99 375.618L1869.99 375.631C1869.97 376.97 1869.93 378.309 1869.88 379.648L1868.88 379.608C1868.83 380.938 1868.75 382.269 1868.67 383.6L1869.66 383.666C1869.57 385.003 1869.47 386.34 1869.34 387.677L1868.35 387.584C1868.22 388.906 1868.08 390.228 1867.92 391.549L1868.92 391.667C1868.76 392.997 1868.58 394.327 1868.39 395.656L1867.4 395.513C1867.21 396.833 1867 398.153 1866.78 399.473L1867.76 399.64C1867.54 400.954 1867.3 402.268 1867.04 403.581L1866.06 403.389C1865.81 404.694 1865.54 405.998 1865.25 407.302L1866.23 407.517C1865.94 408.828 1865.63 410.139 1865.31 411.449L1864.34 411.211C1864.02 412.499 1863.69 413.785 1863.35 415.071L1864.31 415.331C1863.97 416.621 1863.6 417.909 1863.23 419.196L1862.27 418.915C1861.89 420.195 1861.5 421.474 1861.09 422.752L1862.05 423.054C1861.64 424.329 1861.22 425.602 1860.79 426.874L1859.84 426.551C1859.42 427.806 1858.97 429.059 1858.52 430.31L1859.46 430.653C1859 431.911 1858.53 433.168 1858.04 434.423L1857.11 434.061C1856.62 435.308 1856.13 436.553 1855.61 437.796L1856.54 438.176C1856.03 439.405 1855.52 440.633 1854.98 441.858L1854.07 441.46C1853.54 442.68 1853 443.898 1852.44 445.115L1853.35 445.53C1852.79 446.752 1852.22 447.973 1851.64 449.191L1850.73 448.759C1850.16 449.956 1849.57 451.151 1848.98 452.344L1849.87 452.793C1849.27 453.984 1848.66 455.172 1848.04 456.359L1847.15 455.895C1846.54 457.077 1845.9 458.257 1845.26 459.434L1846.14 459.914C1845.49 461.092 1844.84 462.269 1844.17 463.443L1843.3 462.948C1842.65 464.098 1841.98 465.246 1841.3 466.392L1842.17 466.9C1841.49 468.051 1840.8 469.199 1840.09 470.344L1839.24 469.822C1838.54 470.963 1837.83 472.102 1837.11 473.238L1837.95 473.774C1837.24 474.901 1836.51 476.026 1835.78 477.148L1834.94 476.599C1834.21 477.708 1833.47 478.814 1832.73 479.918L1833.55 480.479C1832.8 481.588 1832.04 482.693 1831.27 483.796L1830.45 483.222C1829.68 484.321 1828.9 485.418 1828.11 486.511L1828.92 487.097C1828.14 488.173 1827.36 489.248 1826.56 490.319L1825.76 489.722C1824.96 490.789 1824.16 491.853 1823.35 492.914L1824.14 493.522C1823.33 494.587 1822.5 495.65 1821.67 496.709L1820.88 496.09C1820.05 497.141 1819.22 498.189 1818.37 499.235L1819.15 499.864C1818.31 500.897 1817.47 501.928 1816.61 502.955L1815.84 502.316C1814.99 503.34 1814.13 504.361 1813.26 505.38L1814.02 506.029C1813.15 507.05 1812.27 508.069 1811.38 509.084L1810.63 508.426C1809.75 509.43 1808.86 510.431 1807.97 511.429L1808.71 512.097C1807.82 513.087 1806.93 514.075 1806.02 515.06L1805.28 514.383C1804.38 515.364 1803.47 516.343 1802.55 517.318L1803.28 518.004C1802.36 518.982 1801.43 519.957 1800.49 520.928L1799.77 520.234C1798.85 521.193 1797.91 522.149 1796.97 523.101L1797.69 523.804C1796.75 524.752 1795.81 525.697 1794.86 526.639L1794.15 525.928C1793.2 526.867 1792.25 527.803 1791.28 528.735L1791.98 529.454C1791.01 530.389 1790.04 531.32 1789.06 532.249L1788.37 531.522C1787.41 532.438 1786.43 533.35 1785.45 534.259L1786.13 534.993C1785.15 535.899 1784.17 536.802 1783.18 537.701L1782.5 536.96C1781.52 537.857 1780.52 538.75 1779.52 539.64L1780.18 540.388C1779.18 541.28 1778.16 542.169 1777.14 543.054L1776.49 542.299C1775.48 543.173 1774.47 544.043 1773.45 544.91L1774.1 545.671C1773.08 546.536 1772.06 547.396 1771.03 548.254L1770.39 547.485C1769.37 548.34 1768.34 549.192 1767.3 550.039L1767.93 550.814C1766.89 551.664 1765.84 552.51 1764.79 553.352L1764.16 552.571C1763.12 553.404 1762.08 554.234 1761.02 555.059L1761.64 555.846C1760.59 556.669 1759.53 557.488 1758.47 558.304L1757.86 557.511C1756.8 558.324 1755.74 559.134 1754.67 559.94L1755.27 560.739C1754.2 561.547 1753.12 562.35 1752.03 563.15L1751.44 562.346C1750.37 563.139 1749.29 563.928 1748.2 564.714L1748.79 565.524C1747.71 566.306 1746.62 567.084 1745.53 567.858L1744.95 567.042C1743.86 567.815 1742.77 568.583 1741.67 569.347L1742.24 570.168C1741.14 570.935 1740.03 571.697 1738.92 572.455L1738.35 571.629C1737.25 572.382 1736.14 573.132 1735.02 573.877L1735.58 574.709C1734.47 575.45 1733.35 576.187 1732.23 576.92L1731.69 576.084C1730.57 576.815 1729.45 577.543 1728.32 578.266L1728.86 579.107C1727.73 579.832 1726.6 580.553 1725.46 581.269L1724.93 580.423C1723.8 581.137 1722.66 581.847 1721.51 582.553L1722.04 583.404C1720.9 584.105 1719.76 584.801 1718.62 585.493L1718.1 584.638C1716.96 585.329 1715.81 586.015 1714.66 586.697L1715.17 587.557C1714.02 588.241 1712.86 588.921 1711.7 589.596L1711.2 588.731C1710.04 589.405 1708.88 590.074 1707.71 590.739L1708.2 591.608C1707.04 592.269 1705.88 592.926 1704.71 593.578L1704.22 592.705C1703.06 593.355 1701.89 594.001 1700.71 594.642L1701.19 595.52C1700.02 596.162 1698.84 596.801 1697.66 597.434L1697.18 596.553C1696 597.185 1694.82 597.813 1693.63 598.436L1694.09 599.322C1692.91 599.944 1691.72 600.562 1690.52 601.174L1690.07 600.285C1688.88 600.894 1687.69 601.499 1686.5 602.1L1686.95 602.993C1685.75 603.595 1684.55 604.191 1683.35 604.784L1682.9 603.887C1681.7 604.478 1680.5 605.064 1679.29 605.646L1679.73 606.547C1678.52 607.129 1677.3 607.706 1676.09 608.279L1675.66 607.374C1674.46 607.943 1673.25 608.507 1672.03 609.066L1672.45 609.974C1671.23 610.534 1670.02 611.09 1668.79 611.64L1668.38 610.729C1667.16 611.278 1665.94 611.823 1664.71 612.363L1665.12 613.278C1663.89 613.819 1662.66 614.355 1661.42 614.886L1661.03 613.968C1659.8 614.496 1658.57 615.018 1657.34 615.536L1657.73 616.458C1656.49 616.977 1655.26 617.49 1654.02 617.999L1653.64 617.074C1652.4 617.581 1651.16 618.084 1649.92 618.582L1650.29 619.51C1649.04 620.009 1647.79 620.502 1646.54 620.991L1646.18 620.06C1644.93 620.546 1643.69 621.028 1642.43 621.504L1642.79 622.439C1641.54 622.915 1640.29 623.386 1639.03 623.853L1638.68 622.915C1637.43 623.38 1636.17 623.84 1634.91 624.295L1635.25 625.235C1633.99 625.691 1632.73 626.142 1631.46 626.587L1631.13 625.644C1629.87 626.089 1628.6 626.528 1627.34 626.962L1627.66 627.908C1626.39 628.341 1625.12 628.769 1623.85 629.192L1623.54 628.243C1622.27 628.665 1621 629.082 1619.73 629.494L1620.03 630.445C1618.76 630.857 1617.48 631.264 1616.2 631.666L1615.9 630.712C1614.62 631.112 1613.35 631.508 1612.06 631.898L1612.36 632.854C1611.07 633.244 1609.79 633.629 1608.5 634.008L1608.22 633.049C1606.94 633.427 1605.65 633.799 1604.37 634.167L1604.64 635.128C1603.35 635.496 1602.06 635.858 1600.77 636.215L1600.51 635.251C1599.22 635.607 1597.92 635.957 1596.63 636.302L1596.89 637.269C1595.59 637.614 1594.3 637.954 1593 638.288L1592.75 637.32C1591.45 637.653 1590.16 637.98 1588.86 638.302L1589.1 639.272C1587.8 639.595 1586.5 639.911 1585.19 640.222L1584.96 639.249C1583.66 639.56 1582.36 639.864 1581.05 640.163L1581.28 641.138C1579.97 641.437 1578.66 641.731 1577.35 642.018L1577.13 641.042C1575.83 641.329 1574.52 641.61 1573.21 641.885L1573.42 642.863C1572.11 643.139 1570.79 643.409 1569.48 643.673L1569.28 642.693C1567.97 642.956 1566.66 643.213 1565.35 643.465L1565.53 644.447C1564.22 644.699 1562.9 644.945 1561.58 645.185L1561.4 644.201C1560.08 644.441 1558.77 644.674 1557.45 644.901L1557.62 645.887C1556.3 646.115 1554.98 646.336 1553.65 646.552L1553.49 645.565C1552.17 645.78 1550.85 645.989 1549.53 646.192L1549.68 647.18C1548.36 647.383 1547.03 647.581 1545.7 647.771L1545.56 646.782C1544.24 646.972 1542.91 647.156 1541.59 647.334L1541.72 648.325C1540.39 648.504 1539.06 648.676 1537.73 648.842L1537.61 647.849C1536.28 648.015 1534.95 648.174 1533.62 648.327L1533.74 649.32C1532.41 649.473 1531.07 649.62 1529.74 649.76L1529.64 648.766C1528.31 648.906 1526.97 649.039 1525.64 649.167L1525.74 650.162C1524.4 650.289 1523.07 650.41 1521.73 650.525L1521.65 649.529C1520.32 649.643 1518.98 649.75 1517.65 649.852L1517.72 650.849C1516.39 650.95 1515.05 651.045 1513.71 651.133L1513.65 650.135C1512.31 650.223 1510.98 650.305 1509.64 650.379L1509.7 651.378C1508.36 651.453 1507.02 651.521 1505.68 651.582L1505.64 650.583C1504.3 650.645 1502.96 650.699 1501.63 650.747L1501.66 651.747C1500.32 651.795 1498.98 651.836 1497.64 651.87L1497.62 650.871C1496.28 650.905 1494.95 650.933 1493.61 650.953L1493.62 651.953C1492.28 651.974 1490.94 651.988 1489.6 651.995L1489.6 650.995C1489.3 650.996 1489.01 650.998 1488.71 650.998C1488.34 650.999 1487.96 651 1487.59 651C1486.93 651 1486.26 650.999 1485.59 650.996L1485.59 651.996C1484.26 651.99 1482.92 651.98 1481.59 651.963L1481.61 650.963C1480.28 650.947 1478.95 650.925 1477.63 650.898L1477.61 651.898C1476.28 651.871 1474.96 651.838 1473.63 651.801L1473.66 650.801C1472.34 650.763 1471.02 650.72 1469.71 650.671L1469.67 651.671C1468.33 651.622 1467 651.567 1465.67 651.507L1465.72 650.508C1464.39 650.448 1463.06 650.383 1461.74 650.312L1461.68 651.311C1460.36 651.24 1459.03 651.163 1457.71 651.082L1457.77 650.084C1456.45 650.002 1455.13 649.915 1453.82 649.823L1453.75 650.821C1452.42 650.728 1451.1 650.629 1449.77 650.526L1449.85 649.529C1448.52 649.425 1447.2 649.315 1445.88 649.2L1445.79 650.196C1444.47 650.081 1443.14 649.961 1441.82 649.835L1441.92 648.839C1440.6 648.714 1439.29 648.583 1437.97 648.446L1437.87 649.441C1436.55 649.304 1435.23 649.162 1433.92 649.014L1434.03 648.02C1432.7 647.871 1431.38 647.717 1430.06 647.557L1429.94 648.55C1428.62 648.39 1427.3 648.225 1425.99 648.054L1426.12 647.062C1424.8 646.892 1423.49 646.716 1422.18 646.535L1422.05 647.526C1420.73 647.344 1419.43 647.158 1418.12 646.966L1418.27 645.976C1416.95 645.782 1415.63 645.583 1414.32 645.378L1414.16 646.366C1412.85 646.161 1411.53 645.95 1410.22 645.734L1410.39 644.747C1409.08 644.532 1407.77 644.311 1406.47 644.085L1406.3 645.07C1404.99 644.843 1403.69 644.611 1402.39 644.373L1402.57 643.39C1401.26 643.151 1399.96 642.906 1398.66 642.657L1398.47 643.639C1397.16 643.388 1395.85 643.131 1394.55 642.869L1394.75 641.888C1393.45 641.627 1392.15 641.36 1390.85 641.088L1390.65 642.067C1389.35 641.794 1388.06 641.516 1386.77 641.233L1386.98 640.256C1385.69 639.972 1384.39 639.682 1383.1 639.387L1382.88 640.361C1381.58 640.064 1380.28 639.76 1378.99 639.452L1379.22 638.479C1377.93 638.171 1376.64 637.858 1375.36 637.54L1375.12 638.511C1373.83 638.191 1372.54 637.867 1371.26 637.537L1371.51 636.569C1370.23 636.238 1368.95 635.902 1367.68 635.561L1367.42 636.527C1366.13 636.182 1364.84 635.832 1363.56 635.477L1363.83 634.513C1362.55 634.158 1361.27 633.798 1360 633.433L1359.72 634.394C1358.45 634.028 1357.18 633.656 1355.91 633.279L1356.19 632.321C1354.92 631.944 1353.66 631.561 1352.4 631.173L1352.1 632.129C1350.83 631.737 1349.55 631.339 1348.29 630.936L1348.59 629.983C1347.32 629.58 1346.06 629.173 1344.8 628.76L1344.49 629.71C1343.23 629.296 1341.97 628.877 1340.72 628.452L1341.04 627.505C1339.79 627.081 1338.54 626.651 1337.3 626.215L1336.97 627.159C1335.7 626.719 1334.45 626.272 1333.2 625.821L1333.53 624.88C1332.28 624.429 1331.04 623.974 1329.8 623.513L1329.45 624.45C1328.21 623.988 1326.97 623.52 1325.73 623.048L1326.09 622.114C1324.85 621.641 1323.62 621.162 1322.4 620.679L1322.03 621.609C1320.79 621.119 1319.55 620.624 1318.31 620.124L1318.69 619.197C1317.46 618.698 1316.23 618.193 1315.01 617.683L1314.63 618.606C1313.4 618.095 1312.18 617.579 1310.97 617.057L1311.36 616.138C1310.15 615.616 1308.93 615.088 1307.73 614.555L1307.32 615.47C1306.1 614.93 1304.88 614.385 1303.67 613.835L1304.09 612.924C1302.88 612.376 1301.67 611.822 1300.47 611.262L1300.05 612.169C1298.85 611.608 1297.65 611.042 1296.46 610.471L1296.89 609.569C1295.7 608.996 1294.51 608.418 1293.32 607.834L1292.88 608.731C1291.68 608.141 1290.49 607.546 1289.3 606.946L1289.76 606.053C1288.57 605.454 1287.39 604.85 1286.22 604.241L1285.76 605.129C1284.58 604.518 1283.41 603.901 1282.25 603.28L1282.72 602.398C1281.55 601.773 1280.38 601.142 1279.22 600.507L1278.74 601.384C1277.57 600.743 1276.4 600.097 1275.24 599.446L1275.73 598.574C1274.58 597.924 1273.43 597.269 1272.29 596.609L1271.79 597.476C1270.64 596.814 1269.5 596.147 1268.36 595.475L1268.87 594.614C1267.73 593.936 1266.59 593.252 1265.45 592.563L1264.93 593.418C1263.79 592.725 1262.66 592.027 1261.53 591.324L1262.06 590.476C1260.94 589.775 1259.82 589.069 1258.71 588.358L1258.17 589.2C1257.06 588.486 1255.95 587.766 1254.85 587.041L1255.39 586.205C1254.28 585.473 1253.17 584.736 1252.07 583.993L1251.51 584.822C1250.41 584.078 1249.31 583.328 1248.22 582.573L1248.79 581.751C1247.7 580.998 1246.62 580.24 1245.55 579.477L1244.97 580.293C1243.89 579.522 1242.81 578.746 1241.74 577.965L1242.33 577.158C1241.25 576.373 1240.18 575.583 1239.12 574.788L1238.52 575.589C1237.46 574.791 1236.4 573.989 1235.35 573.181L1235.96 572.389C1234.92 571.584 1233.88 570.774 1232.85 569.959L1232.23 570.744C1231.18 569.916 1230.14 569.082 1229.11 568.244L1229.74 567.467C1228.7 566.63 1227.68 565.788 1226.66 564.94L1226.02 565.708C1225 564.858 1223.99 564.003 1222.99 563.143L1223.64 562.383C1222.64 561.522 1221.64 560.656 1220.65 559.784L1219.99 560.535C1218.99 559.651 1217.99 558.763 1217.01 557.87L1217.68 557.129C1216.69 556.239 1215.72 555.344 1214.76 554.444L1214.07 555.175C1213.1 554.272 1212.14 553.364 1211.19 552.451L1211.88 551.729C1210.92 550.808 1209.97 549.883 1209.03 548.952L1208.33 549.664C1207.38 548.727 1206.44 547.786 1205.51 546.84L1206.22 546.138C1205.29 545.196 1204.37 544.248 1203.46 543.296L1202.74 543.986C1201.82 543.025 1200.91 542.059 1200.02 541.088L1200.75 540.408C1199.84 539.433 1198.95 538.452 1198.07 537.467L1197.32 538.135C1196.43 537.146 1195.55 536.152 1194.68 535.154L1195.44 534.497C1194.57 533.502 1193.72 532.503 1192.87 531.498L1192.1 532.143C1191.24 531.121 1190.39 530.095 1189.55 529.063L1190.32 528.431C1189.48 527.404 1188.66 526.372 1187.84 525.335L1187.05 525.955C1186.23 524.914 1185.42 523.868 1184.62 522.818L1185.41 522.211C1184.61 521.157 1183.81 520.098 1183.03 519.034L1182.22 519.627C1181.43 518.554 1180.65 517.477 1179.88 516.394L1180.7 515.815C1179.93 514.737 1179.18 513.655 1178.43 512.568L1177.61 513.134C1176.86 512.038 1176.12 510.938 1175.39 509.833L1176.22 509.282C1175.49 508.174 1174.77 507.061 1174.06 505.944L1173.22 506.48C1172.5 505.358 1171.8 504.231 1171.11 503.1L1171.97 502.58C1171.28 501.453 1170.6 500.322 1169.94 499.186L1169.08 499.692C1168.4 498.54 1167.74 497.384 1167.09 496.224L1167.96 495.735C1167.31 494.58 1166.68 493.421 1166.05 492.258L1165.17 492.731C1164.55 491.562 1163.93 490.389 1163.33 489.212L1164.22 488.756C1163.61 487.576 1163.02 486.392 1162.44 485.204L1161.54 485.643C1160.96 484.447 1160.39 483.247 1159.83 482.043L1160.74 481.622C1160.18 480.424 1159.64 479.223 1159.11 478.017L1158.19 478.42C1157.65 477.203 1157.13 475.982 1156.62 474.757L1157.54 474.372C1157.03 473.151 1156.54 471.925 1156.05 470.696L1155.12 471.062C1154.64 469.826 1154.16 468.587 1153.7 467.343L1154.64 466.996C1154.18 465.757 1153.74 464.514 1153.3 463.268L1152.36 463.595C1151.92 462.339 1151.5 461.08 1151.09 459.816L1152.04 459.508C1151.64 458.251 1151.24 456.991 1150.86 455.726L1149.9 456.015C1149.52 454.743 1149.15 453.469 1148.8 452.19L1149.76 451.922C1149.41 450.649 1149.07 449.373 1148.74 448.093L1147.77 448.341C1147.44 447.054 1147.13 445.764 1146.83 444.47L1147.8 444.244C1147.5 442.957 1147.22 441.668 1146.94 440.375L1145.97 440.58C1145.69 439.282 1145.43 437.981 1145.19 436.677L1146.17 436.492C1145.93 435.195 1145.7 433.894 1145.48 432.59L1144.5 432.753C1144.28 431.443 1144.08 430.129 1143.89 428.812L1144.88 428.67C1144.69 427.366 1144.52 426.059 1144.36 424.749L1143.37 424.869C1143.21 423.552 1143.07 422.233 1142.94 420.911L1143.93 420.812C1143.8 419.497 1143.69 418.179 1143.59 416.859L1142.59 416.935C1142.49 415.615 1142.4 414.292 1142.33 412.967L1143.33 412.912C1143.26 411.597 1143.2 410.279 1143.15 408.959L1142.15 408.991C1142.11 407.664 1142.08 406.334 1142.07 405.001L1143.07 404.99C1143.06 404.327 1143.06 403.664 1143.06 403C1143.06 402.336 1143.06 401.672 1143.07 401.01L1142.07 400.999C1142.08 399.666 1142.11 398.336 1142.15 397.008L1143.15 397.041C1143.2 395.72 1143.26 394.403 1143.33 393.087L1142.33 393.033C1142.4 391.707 1142.49 390.385 1142.59 389.064L1143.59 389.141C1143.69 387.82 1143.8 386.502 1143.93 385.187L1142.94 385.089C1143.07 383.767 1143.21 382.447 1143.37 381.13L1144.36 381.25C1144.52 379.94 1144.69 378.633 1144.88 377.329L1143.89 377.188C1144.08 375.871 1144.28 374.557 1144.5 373.246L1145.48 373.409C1145.7 372.105 1145.93 370.805 1146.17 369.507L1145.19 369.323C1145.43 368.018 1145.69 366.717 1145.97 365.419L1146.95 365.625C1147.22 364.332 1147.5 363.042 1147.8 361.756L1146.83 361.529C1147.13 360.236 1147.44 358.946 1147.77 357.659L1148.74 357.906C1149.07 356.626 1149.41 355.35 1149.76 354.077L1148.8 353.809C1149.15 352.531 1149.52 351.256 1149.91 349.985L1150.86 350.273C1151.24 349.009 1151.64 347.748 1152.04 346.492L1151.09 346.183C1151.5 344.92 1151.92 343.66 1152.36 342.404L1153.3 342.732C1153.74 341.485 1154.18 340.242 1154.64 339.003L1153.7 338.656C1154.16 337.413 1154.64 336.173 1155.12 334.937L1156.05 335.304C1156.54 334.074 1157.03 332.849 1157.54 331.627L1156.62 331.242C1157.13 330.018 1157.65 328.797 1158.19 327.58L1159.11 327.983C1159.64 326.777 1160.18 325.575 1160.74 324.377L1159.83 323.956C1160.39 322.752 1160.96 321.553 1161.54 320.357L1162.44 320.796C1163.02 319.608 1163.61 318.424 1164.22 317.244L1163.33 316.788C1163.93 315.611 1164.55 314.438 1165.17 313.269L1166.05 313.742C1166.68 312.578 1167.31 311.419 1167.96 310.265L1167.09 309.775C1167.74 308.615 1168.4 307.459 1169.08 306.308L1169.94 306.813C1170.6 305.678 1171.28 304.547 1171.97 303.42L1171.11 302.899C1171.8 301.768 1172.5 300.642 1173.22 299.52L1174.06 300.055C1174.77 298.938 1175.49 297.826 1176.22 296.717L1175.39 296.166C1176.12 295.062 1176.86 293.962 1177.61 292.866L1178.43 293.431C1179.18 292.345 1179.93 291.263 1180.7 290.185L1179.88 289.605C1180.65 288.523 1181.43 287.446 1182.22 286.372L1183.03 286.966C1183.81 285.902 1184.61 284.843 1185.41 283.789L1184.62 283.182C1185.42 282.132 1186.23 281.086 1187.05 280.045L1187.84 280.665C1188.66 279.628 1189.48 278.596 1190.32 277.569L1189.55 276.936C1190.39 275.905 1191.24 274.878 1192.1 273.857L1192.87 274.501C1193.72 273.497 1194.57 272.498 1195.44 271.503L1194.68 270.846C1195.55 269.848 1196.43 268.854 1197.32 267.864L1198.07 268.533C1198.95 267.547 1199.85 266.567 1200.75 265.591L1200.02 264.912C1200.92 263.941 1201.82 262.975 1202.74 262.013L1203.47 262.704C1204.37 261.752 1205.29 260.804 1206.22 259.861L1205.51 259.16C1206.44 258.214 1207.38 257.273 1208.33 256.336L1209.03 257.048C1209.97 256.117 1210.92 255.191 1211.88 254.271L1211.19 253.549C1212.14 252.636 1213.1 251.728 1214.07 250.825L1214.76 251.556C1215.72 250.656 1216.7 249.761 1217.68 248.871L1217.01 248.13C1217.99 247.237 1218.99 246.348 1219.99 245.465L1220.65 246.216C1221.64 245.344 1222.64 244.478 1223.64 243.616L1222.99 242.857C1223.99 241.997 1225 241.142 1226.02 240.292L1226.66 241.059C1227.68 240.212 1228.7 239.37 1229.74 238.532L1229.11 237.756C1230.14 236.918 1231.18 236.084 1232.23 235.256L1232.85 236.04C1233.88 235.226 1234.92 234.416 1235.96 233.611L1235.35 232.818C1236.4 232.011 1237.46 231.208 1238.52 230.411L1239.12 231.211C1240.18 230.417 1241.25 229.627 1242.33 228.842L1241.74 228.034C1242.81 227.254 1243.89 226.478 1244.97 225.707L1245.55 226.522C1246.62 225.76 1247.7 225.002 1248.79 224.249L1248.22 223.427C1249.31 222.672 1250.41 221.922 1251.51 221.177L1252.07 222.006C1253.17 221.264 1254.28 220.527 1255.39 219.794L1254.85 218.959C1255.95 218.234 1257.06 217.514 1258.17 216.8L1258.71 217.642C1259.82 216.931 1260.94 216.225 1262.06 215.524L1261.54 214.675C1262.66 213.972 1263.8 213.275 1264.93 212.582L1265.45 213.437C1266.59 212.748 1267.73 212.064 1268.87 211.385L1268.36 210.525C1269.5 209.853 1270.64 209.186 1271.79 208.524L1272.29 209.39C1273.43 208.73 1274.58 208.076 1275.73 207.426L1275.24 206.554C1276.4 205.903 1277.57 205.257 1278.74 204.616L1279.22 205.493C1280.38 204.857 1281.55 204.227 1282.72 203.602L1282.25 202.72C1283.41 202.098 1284.58 201.482 1285.76 200.871L1286.22 201.759C1287.39 201.149 1288.57 200.545 1289.76 199.947L1289.3 199.054C1290.49 198.454 1291.68 197.858 1292.88 197.268L1293.32 198.166C1294.51 197.582 1295.7 197.004 1296.89 196.431L1296.46 195.529C1297.65 194.958 1298.85 194.392 1300.05 193.831L1300.48 194.737C1301.67 194.178 1302.88 193.624 1304.09 193.075L1303.67 192.165C1304.89 191.615 1306.1 191.07 1307.32 190.53L1307.73 191.445C1308.94 190.912 1310.15 190.384 1311.36 189.862L1310.97 188.943C1312.18 188.421 1313.4 187.905 1314.63 187.394L1315.01 188.317C1316.23 187.807 1317.46 187.302 1318.69 186.803L1318.31 185.876C1319.55 185.376 1320.79 184.881 1322.03 184.391L1322.4 185.321C1323.62 184.837 1324.85 184.359 1326.09 183.886L1325.73 182.952C1326.97 182.48 1328.21 182.012 1329.45 181.55L1329.8 182.487C1331.04 182.026 1332.29 181.57 1333.53 181.12L1333.2 180.179C1334.45 179.728 1335.7 179.281 1336.97 178.841L1337.3 179.785C1338.54 179.349 1339.79 178.919 1341.04 178.495L1340.72 177.548C1341.97 177.123 1343.23 176.704 1344.49 176.29L1344.8 177.24C1346.06 176.827 1347.32 176.42 1348.59 176.017L1348.29 175.064C1349.55 174.661 1350.83 174.263 1352.1 173.871L1352.4 174.827C1353.66 174.439 1354.92 174.056 1356.19 173.679L1355.91 172.72C1357.18 172.344 1358.45 171.972 1359.72 171.606L1360 172.567C1361.27 172.202 1362.55 171.842 1363.83 171.487L1363.56 170.523C1364.84 170.168 1366.13 169.817 1367.42 169.473L1367.68 170.439C1368.95 170.098 1370.23 169.762 1371.51 169.431L1371.26 168.463C1372.55 168.133 1373.83 167.809 1375.12 167.489L1375.36 168.46C1376.64 168.142 1377.93 167.828 1379.22 167.521L1378.99 166.548C1380.28 166.239 1381.58 165.936 1382.88 165.639L1383.1 166.613C1384.39 166.318 1385.69 166.028 1386.98 165.744L1386.77 164.767C1388.06 164.484 1389.35 164.206 1390.65 163.933L1390.85 164.912C1392.15 164.64 1393.45 164.373 1394.75 164.111L1394.55 163.131C1395.85 162.869 1397.16 162.612 1398.47 162.361L1398.66 163.343C1399.96 163.094 1401.26 162.849 1402.57 162.61L1402.39 161.626C1403.69 161.389 1404.99 161.157 1406.3 160.93L1406.47 161.915C1407.77 161.689 1409.08 161.468 1410.39 161.252L1410.22 160.266C1411.53 160.05 1412.85 159.839 1414.16 159.634L1414.32 160.622C1415.63 160.417 1416.95 160.218 1418.27 160.024L1418.12 159.034C1419.43 158.842 1420.74 158.655 1422.05 158.474L1422.18 159.465C1423.49 159.284 1424.8 159.108 1426.12 158.937L1425.99 157.946C1427.3 157.775 1428.62 157.61 1429.94 157.45L1430.07 158.443C1431.38 158.283 1432.71 158.129 1434.03 157.98L1433.92 156.986C1435.23 156.838 1436.55 156.696 1437.87 156.559L1437.97 157.554C1439.29 157.417 1440.6 157.286 1441.92 157.161L1441.82 156.165C1443.14 156.039 1444.47 155.919 1445.79 155.804L1445.88 156.8C1447.2 156.685 1448.52 156.575 1449.85 156.471L1449.77 155.474C1451.1 155.371 1452.42 155.272 1453.75 155.179L1453.82 156.177C1455.14 156.084 1456.45 155.998 1457.77 155.916L1457.71 154.918C1459.03 154.836 1460.36 154.76 1461.68 154.689L1461.74 155.688C1463.06 155.617 1464.39 155.552 1465.72 155.492L1465.67 154.493C1467 154.433 1468.33 154.378 1469.67 154.329L1469.71 155.329C1471.02 155.28 1472.34 155.237 1473.66 155.199L1473.63 154.199C1474.96 154.162 1476.28 154.129 1477.61 154.102L1477.63 155.102C1478.95 155.075 1480.28 155.053 1481.61 155.037L1481.59 154.037C1482.92 154.02 1484.26 154.01 1485.59 154.004L1485.59 155.004C1486.26 155.001 1486.93 155 1487.59 155C1488.26 155 1488.93 155.001 1489.6 155.003L1489.6 154.003C1490.95 154.007 1492.29 154.015 1493.63 154.027L1493.62 155.027C1494.96 155.039 1496.3 155.056 1497.64 155.076L1497.66 154.076C1499 154.096 1500.34 154.121 1501.68 154.149L1501.66 155.149C1503 155.177 1504.34 155.209 1505.68 155.246L1505.71 154.246C1507.05 154.282 1508.39 154.323 1509.74 154.367L1509.7 155.367C1511.04 155.411 1512.38 155.459 1513.72 155.512L1513.76 154.513C1515.1 154.565 1516.44 154.622 1517.78 154.682L1517.74 155.681C1519.08 155.741 1520.41 155.806 1521.75 155.874L1521.8 154.876C1523.14 154.944 1524.48 155.017 1525.82 155.093L1525.77 156.092C1527.11 156.168 1528.45 156.249 1529.78 156.333L1529.85 155.335C1531.19 155.42 1532.53 155.508 1533.87 155.601L1533.8 156.599C1535.13 156.691 1536.47 156.788 1537.8 156.888L1537.88 155.891C1539.22 155.991 1540.55 156.096 1541.89 156.205L1541.81 157.201C1543.15 157.31 1544.48 157.423 1545.82 157.539L1545.91 156.543C1547.25 156.66 1548.58 156.781 1549.92 156.906L1549.83 157.901C1551.16 158.026 1552.5 158.155 1553.83 158.287L1553.93 157.292C1555.26 157.425 1556.59 157.561 1557.93 157.702L1557.82 158.697C1559.16 158.838 1560.49 158.983 1561.82 159.132L1561.93 158.138C1563.27 158.287 1564.61 158.44 1565.94 158.598L1565.82 159.591C1567.15 159.748 1568.48 159.909 1569.81 160.074L1569.94 159.081C1571.27 159.247 1572.6 159.416 1573.93 159.589L1573.8 160.58C1575.13 160.754 1576.45 160.931 1577.78 161.112L1577.91 160.121C1579.25 160.303 1580.58 160.49 1581.91 160.68L1581.77 161.67C1583.1 161.86 1584.42 162.053 1585.75 162.251L1585.9 161.262C1587.22 161.46 1588.55 161.662 1589.87 161.868L1589.72 162.856C1591.04 163.062 1592.36 163.272 1593.68 163.486L1593.84 162.498C1595.17 162.714 1596.5 162.934 1597.82 163.157L1597.66 164.143C1598.98 164.367 1600.3 164.594 1601.62 164.825L1601.8 163.84C1603.12 164.072 1604.44 164.307 1605.76 164.547L1605.58 165.531C1606.9 165.77 1608.21 166.013 1609.52 166.26L1609.71 165.277C1611.03 165.526 1612.35 165.78 1613.67 166.037L1613.48 167.018C1614.8 167.276 1616.11 167.537 1617.43 167.802L1617.63 166.822C1618.94 167.088 1620.26 167.358 1621.57 167.632L1621.37 168.611C1622.68 168.884 1623.98 169.162 1625.29 169.443L1625.5 168.465C1626.81 168.749 1628.12 169.036 1629.43 169.327L1629.21 170.303C1630.53 170.595 1631.84 170.892 1633.15 171.192L1633.37 170.218C1634.68 170.519 1635.99 170.824 1637.29 171.133L1637.06 172.106C1638.37 172.415 1639.67 172.728 1640.96 173.044L1641.2 172.073C1642.5 172.391 1643.8 172.713 1645.1 173.039L1644.85 174.008C1646.16 174.337 1647.46 174.67 1648.77 175.007L1649.02 174.038C1650.32 174.376 1651.62 174.717 1652.92 175.063L1652.66 176.029C1653.95 176.374 1655.24 176.723 1656.53 177.077L1656.8 176.112C1658.09 176.466 1659.37 176.824 1660.66 177.186L1660.39 178.149C1661.68 178.514 1662.98 178.884 1664.27 179.259L1664.55 178.298C1665.84 178.673 1667.13 179.052 1668.42 179.436L1668.13 180.394C1669.42 180.777 1670.7 181.164 1671.98 181.555L1672.27 180.599C1673.55 180.991 1674.82 181.386 1676.1 181.787L1675.8 182.74C1677.08 183.144 1678.36 183.553 1679.64 183.965L1679.95 183.013C1681.23 183.428 1682.51 183.846 1683.78 184.269L1683.47 185.218C1684.74 185.64 1686.01 186.066 1687.27 186.497L1687.6 185.55C1688.86 185.981 1690.13 186.417 1691.39 186.857L1691.06 187.801C1692.33 188.245 1693.59 188.693 1694.85 189.145L1695.19 188.204C1696.46 188.659 1697.73 189.119 1698.99 189.583L1698.64 190.521C1699.9 190.984 1701.16 191.451 1702.41 191.923L1702.76 190.987C1704.01 191.46 1705.26 191.937 1706.5 192.418L1706.14 193.351C1707.4 193.836 1708.65 194.327 1709.89 194.821L1710.26 193.892C1711.52 194.39 1712.76 194.893 1714.01 195.4L1713.63 196.326C1714.87 196.832 1716.11 197.342 1717.34 197.857L1717.73 196.934C1718.96 197.45 1720.19 197.97 1721.42 198.495L1721.02 199.414C1722.26 199.945 1723.49 200.48 1724.72 201.019L1725.12 200.104C1726.36 200.647 1727.59 201.195 1728.81 201.747L1728.4 202.659C1729.62 203.21 1730.84 203.766 1732.05 204.326L1732.47 203.418C1733.68 203.98 1734.89 204.546 1736.09 205.116L1735.67 206.02C1736.88 206.598 1738.1 207.181 1739.3 207.769L1739.74 206.87C1740.96 207.46 1742.16 208.056 1743.36 208.656L1742.92 209.551C1744.11 210.149 1745.31 210.752 1746.49 211.36L1746.95 210.47C1748.14 211.08 1749.32 211.695 1750.5 212.314L1750.03 213.199C1751.23 213.829 1752.42 214.463 1753.6 215.102L1754.08 214.223C1755.26 214.863 1756.44 215.509 1757.61 216.16L1757.13 217.034C1758.3 217.683 1759.46 218.336 1760.62 218.994L1761.11 218.126C1762.28 218.79 1763.44 219.459 1764.59 220.133L1764.08 220.996C1765.25 221.678 1766.41 222.365 1767.56 223.056L1768.07 222.199C1769.23 222.893 1770.37 223.592 1771.51 224.296L1770.99 225.146C1772.12 225.848 1773.25 226.554 1774.37 227.265L1774.9 226.421C1776.04 227.145 1777.17 227.874 1778.3 228.607L1777.75 229.444C1778.88 230.181 1780 230.923 1781.11 231.67L1781.67 230.84C1782.78 231.59 1783.89 232.345 1784.99 233.104L1784.42 233.927C1785.51 234.685 1786.6 235.448 1787.68 236.216L1788.26 235.402C1789.36 236.189 1790.46 236.981 1791.55 237.779L1790.96 238.585C1792.04 239.38 1793.11 240.18 1794.18 240.985L1794.78 240.188C1795.85 240.996 1796.91 241.809 1797.96 242.628L1797.34 243.416C1798.4 244.242 1799.45 245.073 1800.49 245.91L1801.12 245.131C1802.17 245.979 1803.21 246.832 1804.25 247.691L1803.61 248.46C1804.64 249.315 1805.66 250.176 1806.66 251.042L1807.32 250.283C1808.33 251.156 1809.34 252.033 1810.33 252.916L1809.67 253.664C1810.68 254.561 1811.68 255.462 1812.66 256.37L1813.34 255.633C1814.33 256.544 1815.31 257.461 1816.28 258.384L1815.59 259.108C1816.56 260.026 1817.51 260.95 1818.46 261.879L1819.16 261.167C1820.12 262.117 1821.07 263.072 1822.01 264.033L1821.3 264.732C1822.23 265.692 1823.16 266.658 1824.08 267.63L1824.8 266.945C1825.72 267.922 1826.63 268.904 1827.52 269.892L1826.78 270.563C1827.68 271.556 1828.57 272.555 1829.44 273.56L1830.2 272.904C1831.08 273.924 1831.96 274.949 1832.82 275.981L1832.05 276.621C1832.9 277.647 1833.75 278.679 1834.57 279.717L1835.36 279.093C1836.19 280.141 1837.02 281.196 1837.83 282.257L1837.03 282.864C1837.85 283.932 1838.65 285.006 1839.44 286.086L1840.25 285.497C1841.04 286.583 1841.82 287.675 1842.58 288.773L1841.76 289.343C1842.52 290.438 1843.27 291.538 1844 292.644L1844.83 292.092C1845.58 293.219 1846.31 294.351 1847.02 295.49L1846.17 296.022C1846.88 297.154 1847.58 298.292 1848.26 299.436L1849.12 298.926C1849.8 300.077 1850.47 301.235 1851.12 302.399L1850.25 302.888C1850.91 304.057 1851.55 305.232 1852.17 306.413L1853.06 305.946C1853.68 307.135 1854.3 308.33 1854.89 309.531L1853.99 309.975C1854.58 311.168 1855.16 312.368 1855.72 313.573L1856.63 313.153C1857.19 314.374 1857.74 315.601 1858.27 316.834L1857.35 317.23C1857.88 318.455 1858.39 319.687 1858.88 320.924L1859.81 320.554C1860.31 321.8 1860.79 323.052 1861.25 324.31L1860.31 324.655C1860.77 325.906 1861.22 327.163 1861.64 328.426L1862.59 328.107C1863.02 329.379 1863.43 330.657 1863.82 331.941L1862.86 332.233C1863.25 333.508 1863.62 334.789 1863.98 336.076L1864.94 335.811C1865.29 337.102 1865.63 338.399 1865.95 339.701L1864.98 339.939C1865.29 341.231 1865.59 342.529 1865.87 343.834L1866.85 343.624C1867.13 344.938 1867.39 346.257 1867.64 347.582L1866.65 347.764C1866.89 349.068 1867.12 350.378 1867.32 351.694L1868.31 351.54C1868.51 352.862 1868.7 354.189 1868.87 355.522L1867.88 355.647C1868.05 356.971 1868.19 358.3 1868.32 359.635L1869.32 359.538C1869.45 360.866 1869.56 362.2 1869.65 363.539L1868.66 363.608C1868.75 364.93 1868.82 366.257 1868.88 367.589L1869.88 367.548Z" stroke="black" stroke-opacity="0.33" stroke-width="2" stroke-dasharray="4 4"/>
<path d="M-315 0H1328.62C1549.53 0 1728.62 179.086 1728.62 400V1558H-315V0Z" fill="#FFEBD8"/>
</svg>
