<svg width="297" height="297" viewBox="0 0 297 297" fill="none" xmlns="http://www.w3.org/2000/svg">
<rect opacity="0.203637" x="85.6348" y="33.167" width="186.771" height="186.771" rx="29" transform="rotate(16.4487 85.6348 33.167)" fill="#006600"/>
<path fill-rule="evenodd" clip-rule="evenodd" d="M122.003 17.926C118.725 15.9209 114.442 16.9532 112.437 20.2318C110.432 23.5095 111.464 27.7931 114.743 29.7982C118.021 31.8032 122.305 30.7702 124.309 27.4924C126.314 24.2138 125.282 19.9311 122.003 17.926Z" fill="#006600"/>
<path fill-rule="evenodd" clip-rule="evenodd" d="M90.4996 69.4388C87.221 67.4337 82.9382 68.466 80.9332 71.7446C78.9286 75.0223 79.9603 79.3059 83.2389 81.311C86.5175 83.3161 90.8007 82.283 92.8053 79.0052C94.8104 75.7266 93.7781 71.4439 90.4996 69.4388Z" fill="#006600"/>
<path fill-rule="evenodd" clip-rule="evenodd" d="M58.9956 120.952C55.7171 118.946 51.4343 119.979 49.4292 123.257C47.4242 126.536 48.4564 130.819 51.735 132.824C55.0136 134.829 59.2963 133.797 61.3014 130.518C63.3065 127.239 62.2742 122.957 58.9956 120.952Z" fill="#006600"/>
<path fill-rule="evenodd" clip-rule="evenodd" d="M27.4917 172.464C24.2132 170.459 19.9299 171.492 17.9253 174.77C15.9203 178.049 16.9525 182.331 20.2311 184.337C23.5097 186.342 27.7924 185.309 29.7975 182.031C31.8021 178.753 30.7703 174.469 27.4917 172.464Z" fill="#006600"/>
<path fill-rule="evenodd" clip-rule="evenodd" d="M173.516 49.4299C170.238 47.4248 165.955 48.457 163.95 51.7356C161.945 55.0134 162.977 59.2969 166.256 61.302C169.534 63.3071 173.817 62.274 175.822 58.9963C177.827 55.7177 176.795 51.4349 173.516 49.4299Z" fill="#006600"/>
<path fill-rule="evenodd" clip-rule="evenodd" d="M142.012 100.943C138.734 98.9377 134.451 99.9699 132.446 103.249C130.441 106.526 131.473 110.81 134.752 112.815C138.03 114.82 142.313 113.787 144.318 110.509C146.323 107.231 145.291 102.948 142.012 100.943Z" fill="#006600"/>
<path fill-rule="evenodd" clip-rule="evenodd" d="M110.509 152.455C107.231 150.45 102.948 151.483 100.943 154.761C98.9378 158.04 99.9701 162.323 103.249 164.328C106.527 166.333 110.81 165.3 112.815 162.022C114.82 158.743 113.788 154.461 110.509 152.455Z" fill="#006600"/>
<path fill-rule="evenodd" clip-rule="evenodd" d="M79.0054 203.968C75.7268 201.963 71.4436 202.996 69.439 206.274C67.4339 209.553 68.4662 213.835 71.7448 215.841C75.0233 217.846 79.3061 216.813 81.3112 213.535C83.3157 210.257 82.284 205.973 79.0054 203.968Z" fill="#006600"/>
<path fill-rule="evenodd" clip-rule="evenodd" d="M225.029 80.9335C221.75 78.9285 217.468 79.9607 215.462 83.2393C213.458 86.5171 214.49 90.8006 217.768 92.8057C221.047 94.8108 225.33 93.7777 227.335 90.4999C229.34 87.2214 228.307 82.9386 225.029 80.9335Z" fill="#006600"/>
<path fill-rule="evenodd" clip-rule="evenodd" d="M193.526 132.446C190.247 130.441 185.965 131.474 183.96 134.752C181.955 138.03 182.987 142.313 186.265 144.319C189.544 146.324 193.827 145.291 195.832 142.013C197.837 138.734 196.804 134.452 193.526 132.446Z" fill="#006600"/>
<path fill-rule="evenodd" clip-rule="evenodd" d="M162.022 183.959C158.743 181.954 154.461 182.986 152.456 186.265C150.451 189.544 151.483 193.826 154.761 195.831C158.04 197.836 162.323 196.804 164.328 193.526C166.333 190.247 165.301 185.964 162.022 183.959Z" fill="#006600"/>
<path fill-rule="evenodd" clip-rule="evenodd" d="M130.518 235.472C127.24 233.467 122.956 234.5 120.952 237.778C118.947 241.056 119.979 245.339 123.257 247.344C126.536 249.349 130.819 248.317 132.824 245.038C134.828 241.761 133.797 237.477 130.518 235.472Z" fill="#006600"/>
<path fill-rule="evenodd" clip-rule="evenodd" d="M276.543 112.437C273.264 110.432 268.981 111.464 266.976 114.743C264.972 118.021 266.003 122.304 269.282 124.309C272.56 126.315 276.844 125.281 278.848 122.004C280.853 118.725 279.821 114.442 276.543 112.437Z" fill="#006600"/>
<path fill-rule="evenodd" clip-rule="evenodd" d="M245.039 163.95C241.76 161.945 237.477 162.977 235.472 166.256C233.468 169.534 234.499 173.817 237.778 175.822C241.057 177.827 245.34 176.794 247.344 173.517C249.349 170.238 248.317 165.955 245.039 163.95Z" fill="#006600"/>
<path fill-rule="evenodd" clip-rule="evenodd" d="M213.535 215.463C210.256 213.458 205.973 214.49 203.968 217.769C201.963 221.047 202.995 225.33 206.274 227.335C209.553 229.34 213.835 228.308 215.84 225.029C217.846 221.751 216.813 217.468 213.535 215.463Z" fill="#006600"/>
<path fill-rule="evenodd" clip-rule="evenodd" d="M182.031 266.976C178.752 264.971 174.469 266.004 172.464 269.282C170.459 272.56 171.492 276.843 174.77 278.848C178.049 280.853 182.331 279.821 184.337 276.542C186.341 273.264 185.309 268.981 182.031 266.976Z" fill="#006600"/>
</svg>
