<svg width="27" height="27" viewBox="0 0 27 27" fill="none" xmlns="http://www.w3.org/2000/svg">
<g id="maps-svgrepo-com 1">
<path id="Vector" d="M13.5 3.09375C12.5388 3.09416 11.5872 3.28449 10.6999 3.65379C9.81251 4.0231 9.00686 4.56411 8.32922 5.24573C6.95672 6.62629 6.18669 8.49413 6.1875 10.4408C6.1875 12.7747 6.79163 14.4724 9.11405 17.3171C10.1929 18.5436 11.1382 19.8815 11.934 21.3081C12.7761 23.0233 12.6768 24.1875 13.5 24.1875C14.3232 24.1875 14.2239 23.0233 15.066 21.3081C15.8617 19.8815 16.8071 18.5436 17.886 17.3171C20.2084 14.4724 20.8125 12.7745 20.8125 10.4408C20.8133 8.49414 20.0433 6.62631 18.6708 5.24573C17.9931 4.56411 17.1875 4.0231 16.3001 3.65379C15.4128 3.28449 14.4612 3.09416 13.5 3.09375Z" stroke="#006600"/>
<path id="Vector_2" d="M13.5 13.2187C15.0533 13.2187 16.3125 11.9596 16.3125 10.4062C16.3125 8.85295 15.0533 7.59375 13.5 7.59375C11.9467 7.59375 10.6875 8.85295 10.6875 10.4062C10.6875 11.9596 11.9467 13.2187 13.5 13.2187Z" stroke="#006600"/>
</g>
</svg>
