<svg width="26" height="26" viewBox="0 0 26 26" fill="none" xmlns="http://www.w3.org/2000/svg">
<g id="phone-svgrepo-com 1">
<path id="Vector" d="M17.9356 13.9815L17.4421 14.4721C17.4421 14.4721 16.2693 15.6383 13.068 12.4551C9.8668 9.27209 11.0396 8.10595 11.0396 8.10595L11.3503 7.797C12.1158 7.03591 12.1879 5.81399 11.5201 4.92194L10.154 3.09717C9.32748 1.99308 7.7303 1.84723 6.78291 2.78923L5.08251 4.47998C4.61276 4.94707 4.29796 5.55256 4.33614 6.22424C4.4338 7.94264 5.21127 11.6399 9.54965 15.9536C14.1503 20.5281 18.467 20.7099 20.2323 20.5454C20.7907 20.4934 21.2762 20.209 21.6675 19.8198L23.2065 18.2897C24.2453 17.2568 23.9524 15.486 22.6232 14.7635L20.5535 13.6383C19.6808 13.164 18.6176 13.3033 17.9356 13.9815Z" fill="#006600"/>
</g>
</svg>
