<svg width="100" height="100" viewBox="0 0 100 100" fill="none" xmlns="http://www.w3.org/2000/svg">
<rect width="100" height="100" rx="15" fill="#006600"/>
<path d="M51.1496 31.6001C50.8446 31.6001 50.5521 31.7213 50.3364 31.9369C50.1208 32.1526 49.9996 32.4451 49.9996 32.7501V38.7301C49.9996 41.8972 52.1317 44.5629 55.0366 45.3771C54.5306 51.6791 52.709 56.3826 51.2163 59.2829C51.6395 59.7797 52.0374 60.15 52.3479 60.4099C53.5416 61.4081 54.5996 63.0342 54.5996 65.0628C54.6012 66.2637 54.2174 67.4335 53.5048 68.4001H66.0996C67.0146 68.4001 67.8921 68.0366 68.5391 67.3896C69.1861 66.7426 69.5496 65.8651 69.5496 64.9501V64.244C69.5496 63.4436 69.2759 62.7053 68.855 62.1004C67.613 60.3133 64.0963 54.5334 63.3603 45.3748C64.81 44.9684 66.0871 44.0992 66.9969 42.8995C67.9067 41.6999 68.3993 40.2357 68.3996 38.7301V32.7501C68.3996 32.4451 68.2785 32.1526 68.0628 31.9369C67.8471 31.7213 67.5546 31.6001 67.2496 31.6001H65.5246C65.0671 31.6001 64.6283 31.7818 64.3048 32.1053C63.9813 32.4288 63.7996 32.8676 63.7996 33.3251V35.0501C63.7999 35.2011 63.7705 35.3507 63.713 35.4904C63.6554 35.63 63.571 35.7569 63.4644 35.8639C63.2492 36.08 62.9569 36.2018 62.6519 36.2024C62.3469 36.203 62.0542 36.0824 61.8381 35.8672C61.622 35.652 61.5002 35.3597 61.4996 35.0547V35.0501L61.4904 33.3159C61.488 32.86 61.3052 32.4236 60.9819 32.1021C60.6587 31.7806 60.2213 31.6001 59.7654 31.6001H58.6338C58.1779 31.6001 57.7405 31.7806 57.4173 32.1021C57.0941 32.4236 56.9112 32.86 56.9088 33.3159L56.8996 35.0547C56.899 35.3597 56.7773 35.652 56.5612 35.8672C56.3451 36.0824 56.0523 36.203 55.7473 36.2024C55.4423 36.2018 55.15 36.08 54.9348 35.8639C54.7196 35.6478 54.599 35.3551 54.5996 35.0501V33.3251C54.5996 32.8676 54.4179 32.4288 54.0944 32.1053C53.7709 31.7818 53.3321 31.6001 52.8746 31.6001H51.1496ZM41.9496 38.5001C40.6176 38.5001 39.3141 38.8857 38.1964 39.6102C37.0788 40.3348 36.1947 41.3673 35.6509 42.5833C35.1072 43.7992 34.927 45.1465 35.1321 46.4626C35.3372 47.7787 35.9188 49.0073 36.8068 50.0001H36.1996C35.5896 50.0001 35.0046 50.2424 34.5733 50.6738C34.1419 51.1051 33.8996 51.6901 33.8996 52.3001C33.8996 52.9101 34.1419 53.4951 34.5733 53.9264C35.0046 54.3578 35.5896 54.6001 36.1996 54.6001H37.3956C36.54 58.7355 34.2837 61.1229 33.0256 62.174C32.2298 62.841 31.5996 63.8668 31.5996 65.0628C31.5996 66.9051 33.0946 68.4001 34.9369 68.4001H48.9646C50.8046 68.4001 52.2996 66.9051 52.2996 65.0628C52.2996 63.8668 51.6694 62.841 50.8736 62.174C49.6155 61.1229 47.3592 58.7355 46.5036 54.6001H47.6996C48.3096 54.6001 48.8946 54.3578 49.326 53.9264C49.7573 53.4951 49.9996 52.9101 49.9996 52.3001C49.9996 51.6901 49.7573 51.1051 49.326 50.6738C48.8946 50.2424 48.3096 50.0001 47.6996 50.0001H47.0924C47.9804 49.0073 48.562 47.7787 48.7672 46.4626C48.9723 45.1465 48.7921 43.7992 48.2483 42.5833C47.7045 41.3673 46.8204 40.3348 45.7028 39.6102C44.5851 38.8857 43.2816 38.5001 41.9496 38.5001Z" fill="white"/>
</svg>
