 <svg width="100" height="100" viewBox="0 0 100 100" fill="none" xmlns="http://www.w3.org/2000/svg">
<rect width="100" height="100" rx="15" fill="#006600"/>
<g clip-path="url(#clip0_37_2789)">
<path fill-rule="evenodd" clip-rule="evenodd" d="M33.9 70.6H66.1001C68.6899 70.6 70.5299 69.4707 71.6477 67.9182C72.6781 66.4853 73.0001 64.8362 73.0001 63.7V49.9C73.0001 49.29 72.7578 48.705 72.3265 48.2736C71.8951 47.8423 71.3101 47.6 70.7001 47.6H63.8001V36.1C63.8001 34.27 63.0731 32.5149 61.7791 31.2209C60.4851 29.9269 58.7301 29.2 56.9001 29.2H33.9C32.07 29.2 30.315 29.9269 29.021 31.2209C27.727 32.5149 27 34.27 27 36.1V63.7C27 64.8339 27.322 66.4853 28.3524 67.9182C29.4702 69.473 31.3102 70.6 33.9 70.6ZM66.1001 52.2C66.7101 52.2 67.2951 52.4423 67.7264 52.8737C68.1578 53.305 68.4001 53.89 68.4001 54.5V63.7C68.4001 64.31 68.1578 64.895 67.7264 65.3264C67.2951 65.7577 66.7101 66 66.1001 66C65.4901 66 64.9051 65.7577 64.4737 65.3264C64.0424 64.895 63.8001 64.31 63.8001 63.7V54.5C63.8001 53.89 64.0424 53.305 64.4737 52.8737C64.9051 52.4423 65.4901 52.2 66.1001 52.2ZM43.1 45.3C43.1 44.69 43.3424 44.105 43.7737 43.6736C44.205 43.2423 44.79 43 45.4 43C46.01 43 46.5951 43.2423 47.0264 43.6736C47.4577 44.105 47.7 44.69 47.7 45.3C47.7 45.91 47.4577 46.495 47.0264 46.9263C46.5951 47.3577 46.01 47.6 45.4 47.6C44.79 47.6 44.205 47.3577 43.7737 46.9263C43.3424 46.495 43.1 45.91 43.1 45.3ZM45.4 38.4C43.57 38.4 41.815 39.1269 40.521 40.4209C39.227 41.7149 38.5 43.47 38.5 45.3C38.5 47.13 39.227 48.885 40.521 50.179C41.815 51.473 43.57 52.2 45.4 52.2C47.23 52.2 48.9851 51.473 50.2791 50.179C51.5731 48.885 52.3001 47.13 52.3001 45.3C52.3001 43.47 51.5731 41.7149 50.2791 40.4209C48.9851 39.1269 47.23 38.4 45.4 38.4ZM38.5 56.8C37.89 56.8 37.305 57.0423 36.8737 57.4737C36.4423 57.905 36.2 58.49 36.2 59.1C36.2 59.71 36.4423 60.295 36.8737 60.7264C37.305 61.1577 37.89 61.4 38.5 61.4H52.3001C52.9101 61.4 53.4951 61.1577 53.9264 60.7264C54.3577 60.295 54.6001 59.71 54.6001 59.1C54.6001 58.49 54.3577 57.905 53.9264 57.4737C53.4951 57.0423 52.9101 56.8 52.3001 56.8H38.5Z" fill="white"/>
</g>
<defs>
<clipPath id="clip0_37_2789">
<rect width="46" height="46" fill="white" transform="translate(27 27)"/>
</clipPath>
</defs>
</svg>
