<svg width="100" height="100" viewBox="0 0 100 100" fill="none" xmlns="http://www.w3.org/2000/svg">
<rect width="100" height="100" rx="15" fill="#006600"/>
<path d="M61.4996 31.3124C61.5001 31.0277 61.4161 30.7493 61.2582 30.5124C61.1002 30.2755 60.8755 30.0909 60.6126 29.9819C60.3496 29.8729 60.0601 29.8444 59.781 29.9001C59.5018 29.9558 59.2454 30.0931 59.0443 30.2946L53.2943 36.0446C53.1609 36.1784 53.0552 36.3371 52.9832 36.5117C52.9112 36.6864 52.8743 36.8735 52.8746 37.0624V45.0923L50.7442 47.2198C50.3181 47.1067 49.8716 47.0929 49.4393 47.1796C49.0069 47.2662 48.6003 47.4509 48.2506 47.7195C47.9009 47.9881 47.6175 48.3334 47.4223 48.7287C47.2271 49.1241 47.1253 49.559 47.1246 49.9999C47.1248 50.409 47.2123 50.8134 47.3813 51.1861C47.5503 51.5587 47.7969 51.8909 48.1046 52.1606C48.4123 52.4303 48.774 52.6312 49.1655 52.7499C49.5571 52.8686 49.9695 52.9024 50.3751 52.8489C50.7808 52.7955 51.1703 52.6561 51.5178 52.44C51.8652 52.224 52.1626 51.9362 52.3899 51.5961C52.6173 51.2559 52.7694 50.8711 52.8361 50.4674C52.9028 50.0638 52.8826 49.6505 52.7768 49.2553L54.9072 47.1249H62.9371C63.126 47.1252 63.3131 47.0883 63.4877 47.0163C63.6624 46.9443 63.8211 46.8385 63.9549 46.7051L69.7048 40.9551C69.9064 40.7541 70.0437 40.4977 70.0994 40.2185C70.1551 39.9393 70.1266 39.6499 70.0176 39.3869C69.9086 39.1239 69.7239 38.8992 69.4871 38.7413C69.2502 38.5834 68.9718 38.4994 68.6871 38.4999H61.4996V31.3124ZM67.0886 47.6366C67.5833 51.2165 66.9412 54.8613 65.2529 58.0566C63.5647 61.2519 60.9155 63.8363 57.6794 65.4449C54.4433 67.0535 50.7836 67.6051 47.2171 67.0219C43.6506 66.4387 40.3574 64.7501 37.8022 62.1944C35.2471 59.6388 33.5591 56.3452 32.9766 52.7786C32.394 49.2119 32.9464 45.5524 34.5556 42.3166C36.1649 39.0808 38.7498 36.4322 41.9454 34.7445C45.141 33.0569 48.786 32.4155 52.3657 32.9109L51.2646 34.012C50.8637 34.4124 50.5456 34.8879 50.3286 35.4113C50.1115 35.9347 49.9997 36.4958 49.9996 37.0624C47.4408 37.0624 44.9395 37.8212 42.8119 39.2427C40.6843 40.6643 39.0261 42.6849 38.0469 45.0489C37.0677 47.4129 36.8115 50.0142 37.3107 52.5239C37.8099 55.0335 39.0421 57.3387 40.8514 59.1481C42.6607 60.9574 44.966 62.1896 47.4756 62.6888C49.9852 63.188 52.5865 62.9318 54.9506 61.9526C57.3146 60.9734 59.3351 59.3151 60.7567 57.1876C62.1783 55.06 62.9371 52.5587 62.9371 49.9999C64.0805 49.9989 65.1766 49.5439 65.9846 48.7349L67.0886 47.6366ZM49.9996 39.9374C48.0094 39.9374 46.0639 40.5275 44.4092 41.6332C42.7544 42.7389 41.4647 44.3105 40.7031 46.1491C39.9415 47.9878 39.7422 50.011 40.1304 51.963C40.5187 53.9149 41.4771 55.7079 42.8843 57.1151C44.2916 58.5224 46.0846 59.4808 48.0365 59.869C49.9884 60.2573 52.0117 60.058 53.8504 59.2964C55.689 58.5348 57.2606 57.2451 58.3663 55.5903C59.4719 53.9355 60.0621 51.9901 60.0621 49.9999H56.0975L55.7381 50.3593C55.669 51.4638 55.2826 52.5248 54.6254 53.4152C53.9681 54.3055 53.0679 54.9873 52.0327 55.3786C50.9976 55.77 49.8715 55.8543 48.7896 55.6215C47.7077 55.3886 46.716 54.8486 45.9335 54.066C45.1509 53.2835 44.6109 52.2918 44.378 51.2099C44.1452 50.128 44.2295 49.0019 44.6209 47.9668C45.0122 46.9316 45.694 46.0314 46.5843 45.3741C47.4746 44.7169 48.5357 44.3305 49.6402 44.2614L49.9996 43.902V39.9374Z" fill="white"/>
</svg>
